<?xml version="1.0" encoding="UTF-8"?><svg id="Layer_2" xmlns="http://www.w3.org/2000/svg" viewBox="0 0 408.65 240.39"><g id="Layer_1-2"><path d="M408.65,96.12c-2.34,10.19-6.13,19.68-13.01,27.78-10.51,12.38-23.7,21.06-38.71,26.57-12.17,4.46-24.88,7.46-37.36,11.07-1.38,.4-2.81,.64-4.58,1.03,0,6.74-.06,13.36,.07,19.98,.02,.85,.87,1.85,1.59,2.5,2.84,2.57,4.36,5.7,4.2,9.52-.29,6.89,.31,14.01-1.22,20.63-3.58,15.51-16.23,24.89-33.19,25.01-32.06,.23-64.13,.25-96.19,0-17.2-.14-29.66-9.47-33.12-25.5-1.62-7.5-.79-15.57-.72-23.37,.01-1.64,1.15-3.81,2.47-4.79,2.9-2.16,3.12-4.84,3.03-8.02-.17-5.71-.05-11.42-.05-17.64-6.21-.97-12.38-1.65-18.42-2.93-18.97-4-37.9-8.15-56.81-12.43-2.55-.58-4.06-.21-5.83,1.69-8.62,9.24-17.4,18.34-26.12,27.48-6.07,6.37-10.37,7.13-18.08,3.15-7.79-4.02-15.59-8.03-23.36-12.1-7.21-3.78-9.33-9.33-6.44-16.88,3.99-10.41,8.04-20.79,12.16-31.43C9.82,110.21-.08,103.13,0,90.01c.07-12.92,9.68-20.03,19-27.18-3.94-10.14-7.84-20.15-11.72-30.15-3.58-9.21-1.65-14.25,7.21-18.84,7.31-3.79,14.62-7.59,21.95-11.36,7.73-3.98,12.22-3.26,18.15,2.95,8.82,9.23,17.69,18.43,26.4,27.77,1.7,1.82,3.15,2.19,5.51,1.53,32.85-9.24,66.37-14.91,100.27-18.21,35.26-3.43,70.63-5.1,105.98-1.65,27.79,2.72,55,8.12,79.59,22.34,15.2,8.8,27.63,20.29,33.63,37.43,1.09,3.1,1.8,6.34,2.68,9.51v11.98Zm-30.97,28.13c-18.08,5.55-36.64,8.05-55.35,8.87-20.72,.92-41.49,.98-62.24,1.26-4.56,.06-7.24-3.2-6.35-7.2,.8-3.6,3.43-4.75,6.85-4.74,11.18,.03,22.36,.25,33.53-.02,25.55-.62,51.13-1.53,75.83-8.9,7.11-2.12,14.22-5.53,20.17-9.92,9.06-6.69,8.87-19.8,.15-26.99-3.82-3.15-8.41-5.65-13.03-7.48-16.25-6.41-33.44-8.78-50.71-9.65-21.51-1.08-43.07-1.2-64.61-1.68-5.51-.12-8.22-1.91-8.32-5.84-.1-4.07,2.66-6.16,8.38-6.15,13.17,.03,26.38-.5,39.5,.34,19.08,1.23,38.12,3.24,57.12,5.4,6.46,.73,12.75,2.91,19.98,4.63-10.99-9.26-23.01-14.78-35.64-19.05-23.78-8.03-48.44-11.09-73.36-11.75-51.39-1.35-102.29,3.29-152.57,14.11-25.63,5.51-50.82,12.53-74.58,23.89-5.46,2.61-10.67,5.74-16,8.62,1.37,.51,2.4,.34,3.4,.08,27.59-7.17,55.71-11.51,83.94-14.91,29.16-3.52,58.47-5.91,87.72-8.62,9.4-.87,18.85-1.27,28.28-1.77,5.68-.3,9.52,4.15,6.92,8.33-1.14,1.84-4.16,3.32-6.45,3.52-28.75,2.51-57.55,4.4-86.27,7.15-34.68,3.32-69.16,8.22-103.15,16.04-8.83,2.03-17.47,4.85-26.2,7.31l.26,1.18c.71,.34,1.4,.78,2.15,.99,12.8,3.47,25.45,7.73,38.44,10.23,51.65,9.91,103.83,15.63,156.31,18.68,6.64,.39,13.28,.8,19.9,1.38,3.63,.32,5.81,2.77,5.76,5.96-.05,3.1-2.48,5.55-5.93,5.89-.92,.09-1.86-.01-2.79-.09-30.88-2.56-61.79-4.76-92.62-7.78-33.75-3.31-67.23-8.53-100.35-15.95-2.98-.67-5.93-1.5-8.89-2.25l-.37,.9c5.35,2.88,10.6,5.97,16.07,8.62,18.5,8.95,38.01,15.09,57.91,19.94,59.55,14.53,119.98,20.55,181.21,17.32,25.19-1.33,49.93-5.58,73.28-15.74,8.22-3.58,16.1-7.82,22.71-14.17Zm-68.99,70.34H168.15c0,5.03-.35,9.93,.07,14.76,.88,10.17,8.51,18.41,18.61,18.52,34.42,.37,68.85,.35,103.27,0,9.61-.1,17.53-8.29,18.51-17.84,.51-4.97,.09-10.05,.09-15.43Zm-5.93-30.3c-43.09,4.99-85.85,2.69-128.64-1.88v19.73h128.64v-17.85ZM69.96,38.95c-8.12-8.52-16.26-17.09-24.49-25.58-.55-.57-2.02-.93-2.67-.61-8.4,4.23-16.72,8.59-25.3,13.05,4.04,10.37,7.96,20.42,11.68,29.97,13.89-5.73,27.24-11.24,40.79-16.83Zm0,102.34c-13.64-5.64-27.04-11.18-40.8-16.87-3.77,9.73-7.67,19.79-11.65,30.04,9.12,4.72,17.89,9.26,26.71,13.83,8.79-9.22,17.28-18.13,25.74-27Z"/><path d="M87.66,96.12c-7.04,0-14.08,.04-21.12-.01-4.63-.03-7.47-2.35-7.49-5.96-.02-3.63,2.79-5.99,7.43-6,14.34-.04,28.68-.04,43.03,0,4.68,.01,7.45,2.29,7.47,5.94,.02,3.64-2.79,5.99-7.41,6.02-7.3,.05-14.61,.01-21.91,.01Z"/><path d="M208.75,215.12c-6.2,0-9.07-1.81-9.18-5.81-.12-4.14,2.94-6.17,9.28-6.17,.93,0,1.86-.05,2.79,.03,4.05,.31,6.41,2.68,6.28,6.24-.12,3.36-2.5,5.48-6.38,5.69-.93,.05-1.86,0-2.79,.01Z"/><path d="M267.88,215.12c-6.18,0-9.06-1.84-9.15-5.84-.09-4.12,2.97-6.14,9.33-6.13,.93,0,1.86-.04,2.79,.03,4.01,.32,6.41,2.74,6.25,6.28-.15,3.34-2.53,5.45-6.42,5.65-.93,.05-1.86,0-2.79,.01Z"/><path d="M238.05,215.12c-.66,0-1.33,.02-1.99,0-4.29-.16-7.02-2.56-6.93-6.09,.09-3.36,2.73-5.67,6.8-5.86,1.72-.08,3.46-.1,5.18,0,4.07,.25,6.47,2.59,6.41,6.13-.07,3.5-2.52,5.64-6.68,5.81-.93,.04-1.86,0-2.79,0Z"/></g></svg>